<svg xmlns="http://www.w3.org/2000/svg" width="48" height="48" viewBox="0 0 48 48" fill="none">
  <path d="M24 40c9-4 12-9 12-15 0-6.2-4-11-9.4-11-2.7 0-5.3 1.3-7 3.6-1.7-2.3-4.3-3.6-7-3.6C7.9 14 4 18.8 4 25c0 6 3 11 12 15 2.6 1.2 5.4 1.2 8 0z" stroke="#000000" stroke-width="2.4" stroke-linecap="round" stroke-linejoin="round"/>
  <path d="M27 10c0-3 2.6-5.6 5.7-5.6-0.5 3.6-2 6.5-5.7 6.5" stroke="#000000" stroke-width="2.4" stroke-linecap="round" stroke-linejoin="round"/>
  <path d="M24 16c0 2.2.8 4.4 2.2 6.2" stroke="#000000" stroke-width="2.4" stroke-linecap="round"/>
</svg>
