<svg xmlns="http://www.w3.org/2000/svg" width="48" height="48" viewBox="0 0 48 48" fill="none">
  <path d="M24 14c-3.2 4.6-4.8 8.4-4.8 11.8 0 4.8 2.7 9.2 4.8 9.2s4.8-4.4 4.8-9.2C28.8 22.4 27.2 18.6 24 14z" stroke="#000000" stroke-width="2.4" stroke-linecap="round" stroke-linejoin="round"/>
  <path d="M16.2 19.8c-2.4 3.1-3.8 6.2-3.8 8.6 0 4 2.9 7.4 6.6 8.5" stroke="#000000" stroke-width="2.4" stroke-linecap="round" stroke-linejoin="round"/>
  <path d="M31.8 19.8c2.4 3.1 3.8 6.2 3.8 8.6 0 4-2.9 7.4-6.6 8.5" stroke="#000000" stroke-width="2.4" stroke-linecap="round" stroke-linejoin="round"/>
  <path d="M14 34c2.8 2.2 6 3.4 10 3.4s7.2-1.2 10-3.4" stroke="#000000" stroke-width="2.4" stroke-linecap="round"/>
</svg>
